<?xml version="1.0" encoding="iso-8859-1"?>
<!-- Generator: Adobe Illustrator 16.0.0, SVG Export Plug-In . SVG Version: 6.00 Build 0)  -->
<!DOCTYPE svg PUBLIC "-//W3C//DTD SVG 1.1//EN" "http://www.w3.org/Graphics/SVG/1.1/DTD/svg11.dtd">
<svg version="1.1" id="Capa_1" xmlns="http://www.w3.org/2000/svg" xmlns:xlink="http://www.w3.org/1999/xlink" x="0px" y="0px"
     width="25.57px" height="25.57px" viewBox="0 0 25.57 25.57" style="enable-background:new 0 0 25.57 25.57;" xml:space="preserve"
>
<g>
	<g>
		<path d="M18.902,1.194h-1.211C17.369,0.493,16.662,0,15.844,0H9.727C8.909,0,8.202,0.493,7.878,1.194H6.667
			c-2.242,0-4.076,1.835-4.076,4.078h20.387C22.979,3.03,21.145,1.194,18.902,1.194z"/>
		<path d="M3.831,21.988c0,1.97,1.611,3.582,3.582,3.582h10.746c1.972,0,3.582-1.612,3.582-3.582V6.466H3.831V21.988z
			 M16.367,10.048c0-0.659,0.535-1.194,1.194-1.194s1.193,0.535,1.193,1.194v11.94c0,0.66-0.534,1.193-1.193,1.193
			s-1.194-0.535-1.194-1.193V10.048z M11.592,10.048c0-0.659,0.534-1.194,1.194-1.194s1.194,0.535,1.194,1.194v11.94
			c0,0.66-0.534,1.193-1.194,1.193s-1.194-0.535-1.194-1.193V10.048z M6.815,10.048c0-0.659,0.534-1.194,1.193-1.194
			c0.66,0,1.194,0.535,1.194,1.194v11.94c0,0.66-0.534,1.193-1.194,1.193c-0.659,0-1.193-0.535-1.193-1.193V10.048z"/>
	</g>
</g>
<g>
</g>
<g>
</g>
<g>
</g>
<g>
</g>
<g>
</g>
<g>
</g>
<g>
</g>
<g>
</g>
<g>
</g>
<g>
</g>
<g>
</g>
<g>
</g>
<g>
</g>
<g>
</g>
<g>
</g>
</svg>
